:version 1.10
:name ASF
:units
  mass 1
  length 1
  angle deg
:documentation
  ASF file generated by Kaydara
:root
  axis xyz
  order  tx ty tz rx ry rz
  position 0 0 0
  orientation 0 0 0
:bonedata
  begin
    id 1
    name RightUpLegDummy
    direction -1 2.30186e-007 8.31532e-007
    length 4.46685
    axis 0 0 0 xyz
  end
  begin
    id 2
    name RightUpLeg
    direction -2.30187e-007 -1 1.24343e-010
    length 16.4045
    axis -3.49089 -0.000906625 0.000286804 xyz
    dof rx ry rz
  end
  begin
    id 3
    name RightLeg
    direction -2.30181e-007 -1 -4.17157e-009
    length 17.5097
    axis 3.68512 0.0193738 -0.131023 xyz
    dof rx ry rz
  end
  begin
    id 4
    name RightFoot
    direction 8.31421e-007 -4.51202e-011 1
    length 6.49508
    axis 4.81691e-005 -0.120479 -0.188788 xyz
    dof rx ry rz
  end
  begin
    id 5
    name RightToes
    direction 0.00124746 -0.014064 0.9999
    length 3.85082
    axis 0.000481921 0.542163 -0.142578 xyz
    dof rx ry rz
  end
  begin
    id 6
    name SpineDummy
    direction 0.0717043 0.9409 -0.331007
    length 10.0032
    axis 0 0 0 xyz
  end
  begin
    id 7
    name Spine
    direction 2.30186e-007 1 4.58806e-011
    length 9.84055
    axis -0.001389 0.000121418 2.40972e-006 xyz
    dof rx ry rz
  end
  begin
    id 8
    name Spine1
    direction 0 0 0
    length 0
    axis -0.001389 0.000121451 1.30017e-006 xyz
    dof rx ry rz
  end
  begin
    id 9
    name HEadDummy
    direction -0.00347485 0.950688 -0.310128
    length 8.00997
    axis -0.001389 0.000121451 1.30017e-006 xyz
  end
  begin
    id 10
    name HEad
    direction -0.0222688 0.980941 0.193023
    length 5.12695
    axis -0.001389 0.000121451 1.30017e-006 xyz
    dof rx ry rz
  end
  begin
    id 11
    name LeftShoulder1Dummy
    direction 0.988871 0.146793 -0.0242004
    length 3.5792
    axis -0.001389 0.000121451 1.30017e-006 xyz
  end
  begin
    id 12
    name LeftShoulder1
    direction 0.993832 0.108932 0.020779
    length 4.16823
    axis -0.001389 0.000121451 1.30017e-006 xyz
    dof rx ry rz
  end
  begin
    id 13
    name LeftArm
    direction 1 3.44807e-006 -8.31404e-007
    length 9.91437
    axis -23.1894 0.134784 0.967509 xyz
    dof rx ry rz
  end
  begin
    id 14
    name LeftForeArm
    direction 1 3.44842e-006 -8.31581e-007
    length 9.08575
    axis -9.91835 -0.06569 -0.177793 xyz
    dof rx ry rz
  end
  begin
    id 15
    name LeftHand
    direction 0.992938 -0.0411636 0.11126
    length 5.32135
    axis -0.00960232 -0.00340091 0.185173 xyz
    dof rx ry rz
  end
  begin
    id 16
    name RightShoulderDummy
    direction -0.988871 0.146793 -0.0241962
    length 3.5792
    axis -0.001389 0.000121451 1.30017e-006 xyz
  end
  begin
    id 17
    name RightShoulder
    direction -0.993832 0.108933 0.0207785
    length 4.16823
    axis 0.215806 0.000203643 -0.0068026 xyz
    dof rx ry rz
  end
  begin
    id 18
    name RightArm
    direction -1 3.90912e-006 8.31284e-007
    length 9.91437
    axis -23.2009 -0.134239 -0.964101 xyz
    dof rx ry rz
  end
  begin
    id 19
    name RightForeArm
    direction -1 3.90882e-006 8.31502e-007
    length 9.08575
    axis -9.92322 0.0658061 0.178867 xyz
    dof rx ry rz
  end
  begin
    id 20
    name RightHand
    direction -0.992843 -0.0414603 0.112003
    length 5.28593
    axis -0.00960638 0.00330671 -0.185228 xyz
    dof rx ry rz
  end
  begin
    id 21
    name LeftUpLegDummy
    direction 1 -2.30186e-007 -8.31532e-007
    length 4.46685
    axis 0 0 0 xyz
  end
  begin
    id 22
    name LeftUpLeg
    direction -2.30187e-007 -1 6.00931e-010
    length 16.4045
    axis -3.48766 0.00143442 -0.000524262 xyz
    dof rx ry rz
  end
  begin
    id 23
    name LeftLeg
    direction -2.30187e-007 -1 1.6669e-009
    length 17.5097
    axis 3.68178 -0.00654042 -0.000285133 xyz
    dof rx ry rz
  end
  begin
    id 24
    name LeftFoot
    direction 8.31532e-007 -4.54478e-011 1
    length 6.49508
    axis 1.87233e-006 4.66016e-005 -8.6538e-006 xyz
    dof rx ry rz
  end
  begin
    id 25
    name LeftToes
    direction 0.00818058 -0.00485161 0.999955
    length 3.85048
    axis 1.06247e-005 4.65869e-005 -8.65513e-006 xyz
    dof rx ry rz
  end
:hierarchy
  begin
    root RightUpLegDummy SpineDummy LeftUpLegDummy
    RightUpLegDummy RightUpLeg
    RightUpLeg RightLeg
    RightLeg RightFoot
    RightFoot RightToes
    SpineDummy Spine
    Spine Spine1
    Spine1 HEadDummy LeftShoulder1Dummy RightShoulderDummy
    HEadDummy HEad
    LeftShoulder1Dummy LeftShoulder1
    LeftShoulder1 LeftArm
    LeftArm LeftForeArm
    LeftForeArm LeftHand
    RightShoulderDummy RightShoulder
    RightShoulder RightArm
    RightArm RightForeArm
    RightForeArm RightHand
    LeftUpLegDummy LeftUpLeg
    LeftUpLeg LeftLeg
    LeftLeg LeftFoot
    LeftFoot LeftToes
  end

:SAMPLES-PER-SECOND 30
:FULLY-SPECIFIED
:DEGREES
128
root  -52.2376 22.8148 17.374 16.9931 -15.3595 -4.53479
RightUpLeg  -46.4494 14.2398 -41.3877
RightLeg  53.5376 -0.655828 -0.835716
RightFoot  -19.981 0.3338 2.27237
RightToes  -56.0714 -0.357841 -0.386835
Spine  20.4601 1.21364 5.44208
Spine1  34.3786 2.3631 7.73924
HEad  15.2962 19.4137 -16.6958
LeftShoulder1  0 -2.42657e-020 -4.95415e-022
LeftArm  -29.9385 -26.128 -95.4266
LeftForeArm  23.6123 -40.8242 -8.76553
LeftHand  -0.113127 -8.14854 1.21919
RightShoulder  0 2.42657e-020 1.07489e-018
RightArm  -70.3618 32.5918 54.6899
RightForeArm  16.8563 28.5781 5.5075
RightHand  0.816663 21.3809 4.69542
LeftUpLeg  -64.216 10.3226 27.1795
LeftLeg  85.8476 -2.13201 -15.1782
LeftFoot  -23.2472 0.520168 2.52837
LeftToes  -52.5964 2.01279e-006 2.21547e-008
129
root  -50.7083 23.8003 17.4642 17.5621 -17.9197 -5.80506
RightUpLeg  -45.0006 18.5398 -41.2207
RightLeg  48.2393 -5.39635 -5.32892
RightFoot  -19.1638 0.600188 3.93194
RightToes  -27.1904 -0.12506 -0.231972
Spine  19.6186 0.757023 4.74966
Spine1  33.3679 1.59085 6.55064
HEad  15.9923 22.2641 -17.1264
LeftShoulder1  0 -2.42657e-020 -4.95415e-022
LeftArm  -32.6302 -22.7392 -94.6557
LeftForeArm  24.4984 -42.4701 -9.29447
LeftHand  -0.140099 -8.01493 1.63102
RightShoulder  0 2.42657e-020 1.07489e-018
RightArm  -64.0096 29.2083 55.0242
RightForeArm  13.773 35.6638 7.26794
RightHand  1.57845 23.0957 8.08631
LeftUpLeg  -63.0654 12.6992 24.0477
LeftLeg  84.5178 -2.49881 -15.1648
LeftFoot  -22.8081 0.604528 2.99636
LeftToes  -50.9134 2.01279e-006 2.21547e-008
130
root  -49.4764 24.7834 17.4979 17.4297 -18.7947 -6.85554
RightUpLeg  -42.3568 15.1993 -35.4328
RightLeg  48.2044 -3.93454 -3.89999
RightFoot  -18.3349 0.40612 2.89379
RightToes  -37.8989 -0.20192 -0.302948
Spine  18.8873 -0.510727 3.95861
Spine1  32.6907 -0.182604 4.11105
HEad  15.6216 26.5573 -17.4603
LeftShoulder1  0 -2.42657e-020 -4.95415e-022
LeftArm  -37.427 -19.039 -92.9475
LeftForeArm  25.7922 -44.8572 -10.1153
LeftHand  -0.139105 -8.34245 1.53852
RightShoulder  0 2.42657e-020 1.07489e-018
RightArm  -57.2003 27.6871 58.2365
RightForeArm  15.4698 43.0776 9.49912
RightHand  1.69698 24.5792 8.15049
LeftUpLeg  -61.6371 12.2888 22.0211
LeftLeg  82.1134 -2.99346 -14.3446
LeftFoot  -21.7507 0.606385 3.15545
LeftToes  -53.4515 2.01279e-006 2.21547e-008
131
root  -48.3555 25.8072 17.5222 17.167 -18.7282 -7.1251
RightUpLeg  -39.4362 9.49435 -28.4155
RightLeg  50.5947 -0.460158 -0.540034
RightFoot  -17.2023 0.115194 1.13917
RightToes  -45.8064 -0.266449 -0.345518
Spine  18.1406 -2.13129 2.68538
Spine1  31.8094 -3.1944 2.02463
HEad  14.5091 29.8612 -17.7052
LeftShoulder1  0 -2.42657e-020 -4.95415e-022
LeftArm  -42.0741 -15.5198 -91.2561
LeftForeArm  28.8925 -46.869 -10.8634
LeftHand  -0.135866 -8.73959 1.40901
RightShoulder  0 2.42657e-020 1.07489e-018
RightArm  -49.1351 25.9635 62.544
RightForeArm  22.4351 52.92 13.5324
RightHand  0.423085 23.9278 2.36707
LeftUpLeg  -60.1031 9.4109 20.1664
LeftLeg  78.6173 -3.25724 -11.9453
LeftFoot  -20.3193 0.481624 2.68713
LeftToes  -50.8417 2.01279e-006 2.21547e-008
132
root  -47.4334 26.6775 17.5086 17.0582 -20.0459 -7.65738
RightUpLeg  -37.8879 4.20255 -21.3323
RightLeg  54.1829 -0.223282 -0.331622
RightFoot  -17.9794 0.079006 0.876984
RightToes  -45.1643 -0.260996 -0.342398
Spine  17.4569 -2.93708 1.46498
Spine1  30.9131 -4.92638 0.337687
HEad  14.2001 32.4819 -17.7736
LeftShoulder1  0 -2.42657e-020 -4.95415e-022
LeftArm  -46.812 -12.7343 -91.0704
LeftForeArm  29.6502 -47.8422 -11.2467
LeftHand  -0.177046 -8.88909 1.909
RightShoulder  0 2.42657e-020 1.07489e-018
RightArm  -39.8819 24.0028 66.3641
RightForeArm  38.9102 65.0886 22.4435
RightHand  -1.33596 24.2918 -5.83312
LeftUpLeg  -57.9233 7.58616 19.0775
LeftLeg  75.2988 -3.18256 -9.50464
LeftFoot  -19.2592 0.364908 2.15046
LeftToes  -47.5795 2.01279e-006 2.21547e-008
133
root  -46.6044 27.3201 17.4611 17.4057 -22.4029 -7.87903
RightUpLeg  -37.0669 0.147189 -16.0227
RightLeg  56.922 -1.68292 -2.32307
RightFoot  -17.516 0.173687 1.50499
RightToes  -43.0507 -0.2433 -0.331698
Spine  16.6495 -2.82568 0.221519
Spine1  29.5851 -4.42875 -2.20558
HEad  15.1584 34.4912 -16.3112
LeftShoulder1  0 -2.42657e-020 -4.95415e-022
LeftArm  -50.0855 -10.506 -90.9962
LeftForeArm  27.559 -48.1165 -11.3581
LeftHand  -0.24028 -8.30051 2.94293
RightShoulder  0 2.42657e-020 1.07489e-018
RightArm  -31.3896 22.4411 70.6683
RightForeArm  61.7077 73.4547 36.7205
RightHand  -3.09536 24.2449 -13.9727
LeftUpLeg  -56.3813 7.5564 17.4724
LeftLeg  72.7403 -2.95394 -7.68725
LeftFoot  -18.4021 0.280782 1.73326
LeftToes  -43.4224 2.01279e-006 2.21547e-008
134
root  -45.8739 27.7861 17.3384 18.3569 -24.7181 -8.11137
RightUpLeg  -36.4498 -1.67591 -12.5589
RightLeg  58.337 -2.99481 -4.29028
RightFoot  -17.2559 0.268288 2.14563
RightToes  -42.9986 -0.242869 -0.331426
Spine  15.8503 -2.09717 -0.817497
Spine1  28.0542 -2.63127 -4.30603
HEad  14.8128 34.9348 -16.0411
LeftShoulder1  0 -2.42657e-020 -4.95415e-022
LeftArm  -51.9145 -9.58471 -91.2926
LeftForeArm  25.959 -47.7001 -11.1906
LeftHand  -0.201834 -7.92493 2.54544
RightShoulder  0 2.42657e-020 1.07489e-018
RightArm  -23.4841 21.3857 74.5998
RightForeArm  92.4322 78.2427 58.6715
RightHand  -4.36465 23.8221 -20.1162
LeftUpLeg  -56.0738 8.07747 16.105
LeftLeg  70.9686 -2.62281 -6.25548
LeftFoot  -17.0398 0.19814 1.32257
LeftToes  -40.2206 2.01279e-006 2.21547e-008
